# xmcd CD database file
#
# Track frame offsets:
#	150
#	13845
#	28471
#	42329
#	53803
#	66764
#	84558
#	100589
#	116371
#	130785
#	140642
#	156383
#
# Disc length: 2243 seconds
#
# Revision: 0
# Processed by: cddbd v1.5.2PL0 Copyright (c) Steve Scherf et al.
# Submitted via: CDex 1.50beta10
#
DISCID=a408c10c
DTITLE=Merle Haggard - I Am What I Am
DYEAR=2010
DGENRE=Country
TTITLE0=I've Seen in Gone Away
TTITLE1=Pretty When Its New
TTITLE2=Oil Tanker Train
TTITLE3=Live and Love Always
TTITLE4=The Road to My Heart
TTITLE5=How Did you Find Me
TTITLE6=We're Falling in Love Again
TTITLE7=Bad Actor
TTITLE8=Down at The End of The road
TTITLE9=Stranger in The City
TTITLE10=Mexican Bands
TTITLE11=I Am What I Am
EXTD=YEAR: 2010
EXTT0=
EXTT1=
EXTT2=
EXTT3=
EXTT4=
EXTT5=
EXTT6=
EXTT7=
EXTT8=
EXTT9=
EXTT10=
EXTT11=
PLAYORDER=
